HIERARCHY
ROOT pelvis
{
    OFFSET 0.0 95.19148254394531 0.0
    CHANNELS 6 Xposition Yposition Zposition Zrotation Yrotation Xrotation

    JOINT left_hip
    {
        OFFSET -5.771527290344238 -4.982383728027344 -1.9093519449234009
        CHANNELS 3 Zrotation Yrotation Xrotation

        JOINT left_knee
        {
            OFFSET -7.103979110717773 -40.338985443115234 0.22019660472869873
            CHANNELS 3 Zrotation Yrotation Xrotation

            JOINT left_ankle
            {
                OFFSET -2.209652900695801 -42.88735580444336 -1.4278790950775146
                CHANNELS 3 Zrotation Yrotation Xrotation

                JOINT left_foot
                {
                    OFFSET -2.708606719970703 -5.781490325927734 12.828104019165039
                    CHANNELS 3 Zrotation Yrotation Xrotation

                    End Site
                    {
                        OFFSET 0 0 0
                    }
                }
            }
        }
    }

    JOINT right_hip
    {
        OFFSET 6.294027805328369 -5.32916259765625 -0.9484848976135254
        CHANNELS 3 Zrotation Yrotation Xrotation

        JOINT right_knee
        {
            OFFSET 7.6956095695495605 -40.21920394897461 -0.6584453582763672
            CHANNELS 3 Zrotation Yrotation Xrotation

            JOINT right_ankle
            {
                OFFSET 2.3499412536621094 -41.51585388183594 -3.5995497703552246
                CHANNELS 3 Zrotation Yrotation Xrotation

                JOINT right_foot
                {
                    OFFSET 3.547027587890625 -5.861624240875244 13.503323554992676
                    CHANNELS 3 Zrotation Yrotation Xrotation

                    End Site
                    {
                        OFFSET 0 0 0
                    }
                }
            }
        }
    }

    JOINT spine1
    {
        OFFSET 0.6128633618354797 17.34874725341797 -1.8160736560821533
        CHANNELS 3 Zrotation Yrotation Xrotation

        JOINT spine2
        {
            OFFSET -1.1105153560638428 12.617042541503906 -0.1756659746170044
            CHANNELS 3 Zrotation Yrotation Xrotation

            JOINT spine3
            {
                OFFSET -0.40774300694465637 4.15679931640625 2.3552017211914062
                CHANNELS 3 Zrotation Yrotation Xrotation

                JOINT left_collar
                {
                    OFFSET -7.178503513336182 9.438064575195312 -3.8969972133636475
                    CHANNELS 3 Zrotation Yrotation Xrotation

                    JOINT left_shoulder
                    {
                        OFFSET -13.275848388671875 2.5396270751953125 0.4689955711364746
                        CHANNELS 3 Zrotation Yrotation Xrotation

                        JOINT left_elbow
                        {
                            OFFSET -2.7089405059814453 -22.42259979248047 2.35168194770813
                            CHANNELS 3 Zrotation Yrotation Xrotation

                            JOINT left_wrist
                            {
                                OFFSET -8.501354217529297 -26.479385375976562 5.79549503326416
                                CHANNELS 3 Zrotation Yrotation Xrotation

                                End Site
                                {
                                    OFFSET 0 0 0
                                }
                            }
                        }
                    }
                }

                JOINT right_collar
                {
                    OFFSET 8.087486267089844 9.013763427734375 -4.67528772354126
                    CHANNELS 3 Zrotation Yrotation Xrotation

                    JOINT right_shoulder
                    {
                        OFFSET 11.93578052520752 2.1886444091796875 0.2351360321044922
                        CHANNELS 3 Zrotation Yrotation Xrotation

                        JOINT right_elbow
                        {
                            OFFSET 2.9354610443115234 -22.293052673339844 -2.0824174880981445
                            CHANNELS 3 Zrotation Yrotation Xrotation

                            JOINT right_wrist
                            {
                                OFFSET 7.0724945068359375 -28.05664825439453 -3.098099708557129
                                CHANNELS 3 Zrotation Yrotation Xrotation

                                End Site
                                {
                                    OFFSET 0 0 0
                                }
                            }
                        }
                    }
                }

                JOINT neck
                {
                    OFFSET 0.5368854999542236 20.579696655273438 -5.176484107971191
                    CHANNELS 3 Zrotation Yrotation Xrotation

                    JOINT head
                    {
                        OFFSET -1.6342418193817139 11.277603149414062 6.629984378814697
                        CHANNELS 3 Zrotation Yrotation Xrotation

                        End Site
                        {
                            OFFSET 0 0 0
                        }
                    }
                }
            }
        }
    }

}

MOTION
Frames: 11
Frame Time: 0.050000
-17.886974 35.626068 -127.922760 0.000000 0.000000 -0.000000 3.379647 -13.848601 -122.306566 9.554675 -4.175086 107.789383 -48.422356 0.801612 26.632576 0.000000 0.000000 -0.000000 14.865159 9.873873 -116.949574 -0.505899 -13.126400 117.899861 -32.903648 -10.132959 -0.198887 0.000000 0.000000 -0.000000 -1.702622 1.004329 6.524028 -12.471878 6.642629 2.699636 0.000000 0.000000 -0.000000 -27.297895 -1.337912 25.922210 -28.871437 -4.525770 30.460256 -1.634163 -47.613798 -117.323772 0.000000 0.000000 -0.000000 24.375591 -1.395403 23.187081 26.207669 5.217734 8.603440 -25.390039 27.115461 -93.513369 0.000000 0.000000 -0.000000 -32.945745 14.254513 11.604844 0.000000 0.000000 -0.000000
-18.313622 34.160431 -128.458084 0.000000 0.000000 -0.000000 4.568002 -14.370272 -123.625617 10.391271 -5.248946 106.859899 -49.985489 2.071966 26.629411 0.000000 0.000000 -0.000000 16.726596 9.320162 -119.277935 -0.470913 -14.958306 118.399589 -39.591003 -13.624954 -0.567267 0.000000 0.000000 -0.000000 -0.160827 -0.204169 4.196960 -12.332782 6.195325 2.756538 0.000000 0.000000 -0.000000 -25.690069 -1.841972 24.552197 -26.060219 -2.622459 24.930682 9.905985 -45.614331 -117.105374 0.000000 0.000000 -0.000000 24.089518 -1.956107 22.833692 25.034528 3.447134 1.321429 -20.585516 28.549304 -90.262033 0.000000 0.000000 -0.000000 -32.504553 16.028023 7.631994 0.000000 0.000000 -0.000000
-18.695217 32.900490 -128.830780 0.000000 0.000000 -0.000000 5.907674 -14.914314 -124.571258 11.128839 -6.444918 106.024720 -51.228357 3.160990 26.616005 0.000000 0.000000 -0.000000 18.716992 8.671270 -121.301011 -0.360792 -16.943626 118.843295 -45.794816 -16.908671 -0.910535 0.000000 0.000000 -0.000000 1.224527 -1.377011 2.025901 -12.044035 5.696640 2.742531 0.000000 0.000000 -0.000000 -23.965039 -2.762870 23.143439 -22.560965 -0.846864 18.829381 50.000112 -42.735923 -116.507878 0.000000 0.000000 -0.000000 23.658681 -2.128851 22.406000 23.254355 1.749227 -6.294908 -13.715468 29.507205 -86.168293 0.000000 0.000000 -0.000000 -31.580798 17.411740 3.876916 0.000000 0.000000 -0.000000
-19.023203 31.897228 -129.061432 0.000000 0.000000 -0.000000 6.981284 -15.341561 -125.161763 11.768111 -7.318105 105.311378 -52.113002 4.006191 26.542772 0.000000 0.000000 -0.000000 20.170803 8.130900 -122.963621 -0.402695 -18.439139 119.158348 -50.425776 -19.578478 -1.108967 0.000000 0.000000 -0.000000 2.247362 -2.297285 0.285631 -11.707928 5.279348 2.607772 0.000000 0.000000 -0.000000 -22.496320 -3.754651 21.980553 -19.045015 0.575256 13.091645 152.023182 -39.437655 -115.680692 0.000000 0.000000 -0.000000 23.186369 -2.022438 21.982782 21.392965 0.615707 -12.898478 -5.306657 30.053384 -82.312289 0.000000 0.000000 -0.000000 -30.475128 18.313088 0.779432 0.000000 0.000000 -0.000000
-19.301447 31.048843 -129.178528 0.000000 0.000000 -0.000000 7.557660 -15.600363 -125.625604 12.305082 -7.694514 104.821194 -53.047392 4.517267 26.346714 0.000000 0.000000 -0.000000 21.220134 7.686828 -124.403036 -0.546225 -19.555736 119.428484 -53.400769 -21.660657 -1.075960 0.000000 0.000000 -0.000000 2.954349 -2.957346 -1.199761 -11.441978 4.990978 2.490223 0.000000 0.000000 -0.000000 -21.388700 -4.647692 21.131149 -15.855288 1.728226 8.246803 -135.589298 -36.173662 -114.721306 0.000000 0.000000 -0.000000 22.752712 -1.829884 21.608830 19.705413 -0.096104 -18.250163 4.539194 30.267017 -78.784778 0.000000 0.000000 -0.000000 -29.499279 18.895252 -1.602063 0.000000 0.000000 -0.000000
-19.539803 30.262247 -129.219391 0.000000 0.000000 -0.000000 7.798487 -15.745219 -126.029001 12.770822 -7.754141 104.445267 -53.824930 4.912063 26.124413 0.000000 0.000000 -0.000000 21.854341 7.357293 -125.705531 -0.791770 -20.265043 119.679293 -55.080960 -23.249573 -0.858080 0.000000 0.000000 -0.000000 3.398960 -3.381311 -2.460210 -11.209078 4.806235 2.371606 0.000000 0.000000 -0.000000 -20.542217 -5.428936 20.501893 -13.022608 2.675338 4.323693 -109.708970 -33.104599 -113.773736 0.000000 0.000000 -0.000000 22.372925 -1.644288 21.283892 18.244537 -0.548685 -22.613442 15.192770 30.267339 -75.623893 0.000000 0.000000 -0.000000 -28.645828 19.281432 -3.491448 0.000000 0.000000 -0.000000
-19.751040 29.608589 -129.202927 0.000000 0.000000 -0.000000 7.692742 -15.764408 -126.349516 13.158841 -7.490632 104.128104 -54.249679 5.288115 25.797351 0.000000 0.000000 -0.000000 22.095206 7.161021 -126.807060 -1.116789 -20.596776 119.902305 -55.931250 -24.474911 -0.544989 0.000000 0.000000 -0.000000 3.695088 -3.668119 -3.568303 -10.988333 4.671584 2.261045 0.000000 0.000000 -0.000000 -19.911560 -6.110436 20.053199 -10.578012 3.439007 1.181051 -98.775482 -30.325735 -113.040356 0.000000 0.000000 -0.000000 22.083657 -1.490725 21.038286 17.072081 -0.800051 -26.242135 26.083118 30.233913 -72.874242 0.000000 0.000000 -0.000000 -27.920664 19.534734 -4.983401 0.000000 0.000000 -0.000000
-19.941408 29.013693 -129.146240 0.000000 0.000000 -0.000000 7.328753 -15.707539 -126.729829 13.549482 -6.979428 103.884755 -54.556272 5.656304 25.502735 0.000000 0.000000 -0.000000 22.052294 7.070673 -127.756809 -1.462569 -20.631805 120.125985 -56.236406 -25.335987 -0.228408 0.000000 0.000000 -0.000000 3.875317 -3.842633 -4.519290 -10.836433 4.605723 2.178438 0.000000 0.000000 -0.000000 -19.510904 -6.713793 19.801577 -8.530574 4.112174 -1.271443 -93.893322 -27.957831 -112.432557 0.000000 0.000000 -0.000000 21.928942 -1.432449 20.903085 16.238061 -0.974248 -29.142713 36.170496 30.215048 -70.562190 0.000000 0.000000 -0.000000 -27.312008 19.677652 -6.121691 0.000000 0.000000 -0.000000
-20.115004 28.629732 -129.057587 0.000000 0.000000 -0.000000 6.748810 -15.567387 -127.055440 13.895928 -6.254764 103.793861 -54.430970 5.974286 25.263139 0.000000 0.000000 -0.000000 21.765523 7.086621 -128.498724 -1.755014 -20.365288 120.333974 -56.087162 -25.884612 0.121223 0.000000 0.000000 -0.000000 4.033755 -4.000923 -5.367279 -10.825459 4.601542 2.187470 0.000000 0.000000 -0.000000 -19.217155 -7.263514 19.638849 -6.847538 4.656854 -3.004531 -92.083478 -25.995351 -111.958577 0.000000 0.000000 -0.000000 21.833238 -1.449897 20.810858 15.683080 -1.095664 -31.272240 43.886795 30.150621 -68.753779 0.000000 0.000000 -0.000000 -26.874438 19.785870 -6.963174 0.000000 0.000000 -0.000000
-20.275496 28.310303 -128.939957 0.000000 0.000000 -0.000000 6.135668 -15.410607 -127.367093 14.257333 -5.482878 103.730988 -54.137925 6.312541 25.027467 0.000000 0.000000 -0.000000 21.245171 7.197290 -129.146704 -2.083626 -19.854882 120.518625 -55.838983 -26.284060 0.425743 0.000000 0.000000 -0.000000 4.168782 -4.139303 -6.116974 -10.952993 4.685754 2.207699 0.000000 0.000000 -0.000000 -19.051651 -7.734237 19.579144 -5.389640 5.207329 -4.448944 -91.294263 -24.246501 -111.596907 0.000000 0.000000 -0.000000 21.769179 -1.502034 20.742626 15.201703 -1.279221 -32.861271 50.807369 30.120830 -67.432179 0.000000 0.000000 -0.000000 -26.505274 19.842807 -7.613504 0.000000 0.000000 -0.000000
-20.422182 28.077316 -128.801575 0.000000 0.000000 -0.000000 5.327935 -15.182691 -127.666457 14.595065 -4.517857 103.747349 -53.748320 6.575777 24.847230 0.000000 0.000000 -0.000000 20.515274 7.401245 -129.657456 -2.499141 -19.135493 120.525634 -55.517756 -26.656950 0.744993 0.000000 0.000000 -0.000000 4.264542 -4.237679 -6.796738 -11.125275 4.825340 2.189007 0.000000 0.000000 -0.000000 -18.975906 -8.137781 19.589097 -4.111048 5.731648 -5.741703 -90.823118 -22.664703 -111.368923 0.000000 0.000000 -0.000000 21.712463 -1.594976 20.674714 14.850140 -1.448077 -34.039584 56.722145 30.127775 -66.479670 0.000000 0.000000 -0.000000 -26.339016 19.957254 -8.084057 0.000000 0.000000 -0.000000
